<svg width="49" height="49" viewBox="0 0 49 49" fill="none" xmlns="http://www.w3.org/2000/svg">
<path d="M34.3848 15.75H14.6152L24.5 24.2227L34.3848 15.75Z" fill="#B2C124"/>
<path d="M24.5 26.25C24.2911 26.25 24.089 26.1752 23.9305 26.0389L13.125 16.7771V33.25H35.875V16.7771L25.0695 26.0389C24.911 26.1752 24.7089 26.25 24.5 26.25Z" fill="#B2C124"/>
<path d="M24.5 0C10.9691 0 0 10.9691 0 24.5C0 38.0309 10.9691 49 24.5 49C38.0309 49 49 38.0309 49 24.5C48.9846 10.9755 38.0245 0.0153809 24.5 0ZM37.625 34.125C37.625 34.6082 37.2332 35 36.75 35H12.25C11.7668 35 11.375 34.6082 11.375 34.125V14.875C11.375 14.3918 11.7668 14 12.25 14H36.75C37.2332 14 37.625 14.3918 37.625 14.875V34.125Z" fill="#B2C124"/>
</svg>
