<svg width="49" height="49" viewBox="0 0 49 49" fill="none" xmlns="http://www.w3.org/2000/svg">
<path d="M24.5001 0.10199C10.9692 0.10199 0 11.0712 0 24.6021C0 36.7378 8.83278 46.7881 20.414 48.7343V29.7135H14.5039V22.8687H20.414V17.8216C20.414 11.9655 23.9907 8.77432 29.2155 8.77432C31.7179 8.77432 33.8684 8.96078 34.4926 9.04291V15.1641L30.8689 15.1658C28.0281 15.1658 27.4804 16.5155 27.4804 18.4968V22.8652H34.2588L33.3747 29.71H27.4804V48.898C39.6023 47.4226 49 37.1163 49 24.5951C49 11.0712 38.0308 0.10199 24.5001 0.10199Z" fill="#40A4D8"/>
</svg>
