<svg width="49" height="49" viewBox="0 0 49 49" fill="none" xmlns="http://www.w3.org/2000/svg">
<path d="M29.1895 24.5C29.1895 27.09 27.09 29.1895 24.5 29.1895C21.91 29.1895 19.8105 27.09 19.8105 24.5C19.8105 21.91 21.91 19.8105 24.5 19.8105C27.09 19.8105 29.1895 21.91 29.1895 24.5Z" fill="#F56220"/>
<path d="M35.467 16.203C35.2416 15.5921 34.8819 15.0392 34.4146 14.5854C33.9608 14.1181 33.4082 13.7584 32.797 13.533C32.3013 13.3405 31.5566 13.1113 30.185 13.0489C28.7012 12.9812 28.2563 12.9666 24.5 12.9666C20.7433 12.9666 20.2984 12.9809 18.815 13.0485C17.4434 13.1113 16.6983 13.3405 16.203 13.533C15.5918 13.7584 15.0388 14.1181 14.5854 14.5854C14.1181 15.0392 13.7584 15.5918 13.5326 16.203C13.3401 16.6987 13.111 17.4438 13.0485 18.8154C12.9809 20.2988 12.9663 20.7436 12.9663 24.5004C12.9663 28.2567 12.9809 28.7016 13.0485 30.1854C13.111 31.557 13.3401 32.3017 13.5326 32.7974C13.7584 33.4086 14.1177 33.9611 14.585 34.415C15.0388 34.8823 15.5914 35.2419 16.2026 35.4673C16.6983 35.6602 17.4434 35.8894 18.815 35.9518C20.2984 36.0195 20.7429 36.0337 24.4996 36.0337C28.2567 36.0337 28.7016 36.0195 30.1846 35.9518C31.5562 35.8894 32.3013 35.6602 32.797 35.4673C34.024 34.9941 34.9937 34.0243 35.467 32.7974C35.6595 32.3017 35.8887 31.557 35.9515 30.1854C36.0191 28.7016 36.0333 28.2567 36.0333 24.5004C36.0333 20.7436 36.0191 20.2988 35.9515 18.8154C35.889 17.4438 35.6599 16.6987 35.467 16.203V16.203ZM24.5 31.7241C20.51 31.7241 17.2755 28.49 17.2755 24.5C17.2755 20.51 20.51 17.2759 24.5 17.2759C28.4896 17.2759 31.7241 20.51 31.7241 24.5C31.7241 28.49 28.4896 31.7241 24.5 31.7241ZM32.0097 18.6786C31.0773 18.6786 30.3214 17.9226 30.3214 16.9903C30.3214 16.0579 31.0773 15.302 32.0097 15.302C32.9421 15.302 33.698 16.0579 33.698 16.9903C33.6976 17.9226 32.9421 18.6786 32.0097 18.6786Z" fill="#F56220"/>
<path d="M24.5 0C10.9711 0 0 10.9711 0 24.5C0 38.0289 10.9711 49 24.5 49C38.0289 49 49 38.0289 49 24.5C49 10.9711 38.0289 0 24.5 0ZM38.4835 30.3001C38.4155 31.7977 38.1773 32.8202 37.8297 33.7152C37.0988 35.6049 35.6049 37.0988 33.7152 37.8297C32.8206 38.1773 31.7977 38.4151 30.3005 38.4835C28.8003 38.5519 28.321 38.5684 24.5004 38.5684C20.6794 38.5684 20.2005 38.5519 18.6999 38.4835C17.2026 38.4151 16.1798 38.1773 15.2852 37.8297C14.3461 37.4764 13.496 36.9227 12.7932 36.2068C12.0777 35.5044 11.524 34.6539 11.1707 33.7152C10.8231 32.8206 10.5849 31.7977 10.5169 30.3005C10.4477 28.7999 10.4316 28.3206 10.4316 24.5C10.4316 20.6794 10.4477 20.2001 10.5165 18.6999C10.5845 17.2023 10.8223 16.1798 11.17 15.2848C11.5233 14.3461 12.0773 13.4956 12.7932 12.7932C13.4956 12.0773 14.3461 11.5236 15.2848 11.1703C16.1798 10.8227 17.2023 10.5849 18.6999 10.5165C20.2001 10.4481 20.6794 10.4316 24.5 10.4316C28.3206 10.4316 28.7999 10.4481 30.3001 10.5169C31.7977 10.5849 32.8202 10.8227 33.7152 11.17C34.6539 11.5233 35.5044 12.0773 36.2072 12.7932C36.9227 13.496 37.4767 14.3461 37.8297 15.2848C38.1777 16.1798 38.4155 17.2023 38.4839 18.6999C38.5523 20.2001 38.5684 20.6794 38.5684 24.5C38.5684 28.3206 38.5523 28.7999 38.4835 30.3001V30.3001Z" fill="#F56220"/>
</svg>
